<svg xmlns="http://www.w3.org/2000/svg" xmlns:xlink="http://www.w3.org/1999/xlink" width="200" zoomAndPan="magnify" viewBox="0 0 150 149.999998" height="200" preserveAspectRatio="xMidYMid meet" version="1.0"><defs><g/><clipPath id="518d66d5da"><path d="M 72 40.257812 L 84 40.257812 L 84 49 L 72 49 Z M 72 40.257812 " clip-rule="nonzero"/></clipPath><clipPath id="a6c6ec8253"><path d="M 100 42 L 105.339844 42 L 105.339844 49 L 100 49 Z M 100 42 " clip-rule="nonzero"/></clipPath><clipPath id="ead663ad92"><path d="M 45.339844 44 L 103 44 L 103 75.507812 L 45.339844 75.507812 Z M 45.339844 44 " clip-rule="nonzero"/></clipPath></defs><path fill="#2d323c" d="M 56.726562 48.59375 C 57.675781 48.792969 58.574219 49.257812 59.300781 49.960938 C 59.320312 49.980469 59.339844 50 59.351562 50.023438 C 59.433594 50.15625 59.394531 50.332031 59.261719 50.417969 C 56.410156 52.164062 54.53125 54.734375 53.621094 58.128906 C 53.613281 58.152344 53.609375 58.179688 53.59375 58.203125 C 53.519531 58.339844 53.34375 58.390625 53.207031 58.316406 C 52.316406 57.832031 51.609375 57.105469 51.136719 56.242188 C 50.667969 55.386719 50.433594 54.394531 50.5 53.375 C 50.566406 52.359375 50.921875 51.402344 51.5 50.617188 C 52.074219 49.828125 52.871094 49.199219 53.820312 48.832031 C 54.765625 48.46875 55.777344 48.394531 56.730469 48.589844 Z M 56.726562 48.59375 " fill-opacity="1" fill-rule="evenodd"/><g clip-path="url(#518d66d5da)"><path fill="#2d323c" d="M 72.988281 45.027344 C 73.976562 42.449219 75.460938 41.011719 77.015625 40.488281 C 77.871094 40.199219 78.75 40.1875 79.574219 40.417969 C 80.394531 40.648438 81.167969 41.117188 81.824219 41.785156 C 83.195312 43.191406 84.046875 45.488281 83.742188 48.320312 C 83.726562 48.476562 83.585938 48.589844 83.433594 48.574219 C 83.375 48.566406 83.320312 48.542969 83.277344 48.507812 C 81.789062 47.234375 80.207031 46.339844 78.546875 45.828125 C 76.882812 45.316406 75.128906 45.183594 73.285156 45.429688 C 73.128906 45.453125 72.988281 45.34375 72.964844 45.183594 C 72.960938 45.128906 72.964844 45.078125 72.988281 45.027344 Z M 72.988281 45.027344 " fill-opacity="1" fill-rule="evenodd"/></g><path fill="#2d323c" d="M 99.898438 45.984375 C 99.589844 45.828125 99.46875 45.449219 99.628906 45.140625 C 99.785156 44.832031 100.160156 44.710938 100.464844 44.867188 C 100.976562 45.132812 101.433594 45.484375 101.8125 45.898438 C 102.191406 46.316406 102.496094 46.804688 102.710938 47.34375 C 102.84375 47.664062 102.683594 48.03125 102.367188 48.160156 C 102.046875 48.292969 101.683594 48.132812 101.554688 47.808594 C 101.394531 47.417969 101.167969 47.058594 100.886719 46.746094 C 100.601562 46.4375 100.269531 46.175781 99.898438 45.980469 Z M 99.898438 45.984375 " fill-opacity="1" fill-rule="evenodd"/><g clip-path="url(#a6c6ec8253)"><path fill="#2d323c" d="M 100.40625 43.992188 C 100.097656 43.832031 99.980469 43.453125 100.140625 43.140625 C 100.300781 42.832031 100.675781 42.710938 100.984375 42.875 C 101.957031 43.382812 102.816406 44.066406 103.53125 44.886719 C 104.242188 45.703125 104.808594 46.652344 105.183594 47.691406 C 105.300781 48.015625 105.132812 48.378906 104.8125 48.496094 C 104.488281 48.613281 104.128906 48.445312 104.011719 48.117188 C 103.6875 47.226562 103.203125 46.414062 102.59375 45.714844 C 101.984375 45.015625 101.246094 44.429688 100.40625 43.988281 Z M 100.40625 43.992188 " fill-opacity="1" fill-rule="evenodd"/></g><path fill="#2d323c" d="M 56.398438 65.050781 C 57.152344 68.230469 58.894531 69.414062 61.609375 68.605469 C 64.421875 67.410156 62.679688 63.953125 63.097656 61.320312 C 63.449219 59.085938 66.339844 55.160156 64.074219 54.519531 C 59.566406 53.25 55.945312 60.796875 56.398438 65.050781 Z M 61.636719 59.472656 C 61.636719 60.191406 61.171875 60.777344 60.597656 60.777344 C 60.023438 60.777344 59.558594 60.191406 59.558594 59.472656 C 59.558594 58.753906 60.023438 58.167969 60.597656 58.167969 C 61.171875 58.167969 61.636719 58.753906 61.636719 59.472656 Z M 61.636719 59.472656 " fill-opacity="1" fill-rule="evenodd"/><path fill="#2d323c" d="M 73.121094 60.710938 C 73.207031 60.636719 73.296875 60.566406 73.394531 60.503906 C 74.300781 59.757812 74.75 58.90625 74.484375 58.214844 C 74.054688 57.09375 71.890625 56.839844 69.660156 57.640625 C 67.425781 58.445312 65.960938 60.003906 66.394531 61.121094 C 66.652344 61.796875 67.542969 62.15625 68.695312 62.164062 C 72.042969 62.273438 73.148438 68.96875 67.527344 67.769531 C 67.328125 67.785156 67.171875 67.949219 67.167969 68.152344 C 67.167969 68.351562 67.3125 68.523438 67.511719 68.542969 C 71.488281 70.085938 75.984375 68.402344 77.988281 64.617188 C 78.007812 64.484375 77.945312 64.359375 77.828125 64.300781 C 77.710938 64.242188 77.570312 64.265625 77.480469 64.359375 C 73.847656 69 70.382812 63.085938 73.121094 60.714844 Z M 73.121094 60.710938 " fill-opacity="1" fill-rule="evenodd"/><path fill="#2d323c" d="M 73.464844 54.183594 C 73.886719 54.484375 74.359375 54.75 74.769531 54.980469 C 75.058594 55.140625 75.320312 55.289062 75.484375 55.40625 C 75.964844 55.742188 76.402344 56.082031 76.796875 56.425781 C 77.1875 56.769531 77.539062 57.121094 77.84375 57.484375 C 78.253906 57.960938 78.511719 58.40625 78.75 58.820312 C 79.234375 59.644531 79.644531 60.355469 80.945312 61.003906 C 81.769531 61.417969 82.535156 61.484375 83.171875 61.277344 C 83.699219 61.109375 84.136719 60.761719 84.457031 60.28125 C 84.769531 59.816406 84.96875 59.226562 85.023438 58.558594 C 85.128906 57.261719 84.707031 55.664062 83.542969 54.101562 C 83.039062 53.429688 82.476562 52.851562 81.847656 52.371094 C 81.21875 51.890625 80.527344 51.5 79.769531 51.203125 C 79.222656 50.992188 78.4375 50.804688 77.582031 50.707031 C 76.835938 50.621094 76.03125 50.59375 75.289062 50.675781 C 74.535156 50.761719 73.738281 51.003906 73.179688 51.375 C 72.863281 51.582031 72.617188 51.835938 72.488281 52.125 C 72.34375 52.4375 72.332031 52.78125 72.503906 53.148438 C 72.65625 53.480469 72.960938 53.828125 73.460938 54.183594 Z M 79.324219 53.414062 C 79.492188 53.832031 79.445312 54.277344 79.160156 54.5625 C 78.753906 54.972656 78.015625 54.890625 77.511719 54.382812 C 77.074219 53.945312 76.953125 53.328125 77.1875 52.90625 C 77.226562 52.835938 77.269531 52.773438 77.328125 52.71875 C 77.734375 52.308594 78.476562 52.390625 78.980469 52.902344 C 79.132812 53.054688 79.246094 53.230469 79.324219 53.414062 Z M 79.324219 53.414062 " fill-opacity="1" fill-rule="evenodd"/><g clip-path="url(#ead663ad92)"><path stroke-linecap="butt" transform="matrix(0.341949, 0, 0, 0.344238, 45.459421, 40.257597)" fill-opacity="1" fill="#2d323c" fill-rule="evenodd" stroke-linejoin="miter" d="M 164.02265 95.841774 L 137.474501 95.841774 C 148.635233 80.182197 159.898777 56.590704 162.274859 39.024744 C 163.4629 30.85453 160.184364 22.672969 153.684408 17.566585 C 135.863791 3.609136 116.386771 20.970841 127.855937 38.287156 C 132.905112 45.901341 142.729298 48.715526 151.034162 44.925454 C 147.858437 47.864462 143.608905 49.362334 139.302256 49.078647 C 134.995607 48.794959 130.974545 46.752405 128.210065 43.427582 C 129.820774 59.915527 118.7857 83.541063 106.299845 95.841774 L 2.35767 95.841774 C 1.078241 95.841774 0.0272818 96.885746 0.0272818 98.168015 L 0.0272818 100.029008 C 0.0272818 101.311278 1.078241 102.35525 2.35767 102.35525 L 164.011227 102.35525 C 165.290656 102.35525 166.341615 101.311278 166.341615 100.029008 L 166.341615 98.168015 C 166.341615 96.885746 165.290656 95.841774 164.011227 95.841774 Z M 164.02265 95.841774 " stroke="#373435" stroke-width="0.09" stroke-opacity="1" stroke-miterlimit="2.613"/></g><g fill="#2d323c" fill-opacity="1"><g transform="translate(29.865761, 92.956139)"><g><path d="M 7.625 -6.578125 C 7.625 -7.109375 7.625 -7.601562 7.625 -8.0625 C 7.625 -8.519531 7.625 -8.976562 7.625 -9.4375 C 7.625 -9.90625 7.625 -10.410156 7.625 -10.953125 C 7.914062 -11.296875 8.242188 -11.535156 8.609375 -11.671875 C 8.972656 -11.816406 9.347656 -11.875 9.734375 -11.84375 C 10.117188 -11.8125 10.46875 -11.703125 10.78125 -11.515625 C 11.101562 -11.335938 11.363281 -11.097656 11.5625 -10.796875 C 11.757812 -10.492188 11.859375 -10.144531 11.859375 -9.75 C 11.859375 -9.507812 11.859375 -9.171875 11.859375 -8.734375 C 11.867188 -8.304688 11.875 -7.816406 11.875 -7.265625 C 11.882812 -6.710938 11.890625 -6.125 11.890625 -5.5 C 11.890625 -4.882812 11.890625 -4.273438 11.890625 -3.671875 C 11.890625 -3.066406 11.878906 -2.5 11.859375 -1.96875 C 11.847656 -1.4375 11.828125 -0.972656 11.796875 -0.578125 C 11.546875 -0.328125 11.210938 -0.132812 10.796875 0 C 10.390625 0.132812 9.945312 0.1875 9.46875 0.15625 C 8.988281 0.132812 8.515625 0.0078125 8.046875 -0.21875 C 7.585938 -0.445312 7.175781 -0.804688 6.8125 -1.296875 C 6.65625 -1.523438 6.488281 -1.78125 6.3125 -2.0625 C 6.132812 -2.34375 5.960938 -2.625 5.796875 -2.90625 C 5.640625 -3.195312 5.5 -3.457031 5.375 -3.6875 C 5.25 -3.914062 5.15625 -4.082031 5.09375 -4.1875 C 5.070312 -4.226562 5.046875 -4.265625 5.015625 -4.296875 C 4.992188 -4.328125 4.972656 -4.359375 4.953125 -4.390625 C 4.941406 -4.390625 4.925781 -4.382812 4.90625 -4.375 C 4.894531 -4.375 4.878906 -4.375 4.859375 -4.375 C 4.867188 -4.019531 4.878906 -3.695312 4.890625 -3.40625 C 4.910156 -3.113281 4.925781 -2.828125 4.9375 -2.546875 C 4.957031 -2.265625 4.96875 -1.957031 4.96875 -1.625 C 4.976562 -1.300781 4.976562 -0.929688 4.96875 -0.515625 C 4.59375 -0.203125 4.203125 0 3.796875 0.09375 C 3.398438 0.195312 3.019531 0.21875 2.65625 0.15625 C 2.300781 0.101562 1.976562 -0.0078125 1.6875 -0.1875 C 1.394531 -0.363281 1.160156 -0.578125 0.984375 -0.828125 C 0.816406 -1.085938 0.726562 -1.359375 0.71875 -1.640625 C 0.707031 -2.117188 0.695312 -2.648438 0.6875 -3.234375 C 0.675781 -3.816406 0.664062 -4.421875 0.65625 -5.046875 C 0.644531 -5.671875 0.640625 -6.285156 0.640625 -6.890625 C 0.640625 -7.503906 0.640625 -8.082031 0.640625 -8.625 C 0.648438 -9.164062 0.660156 -9.644531 0.671875 -10.0625 C 0.691406 -10.476562 0.710938 -10.800781 0.734375 -11.03125 C 1.015625 -11.257812 1.359375 -11.441406 1.765625 -11.578125 C 2.179688 -11.722656 2.613281 -11.789062 3.0625 -11.78125 C 3.507812 -11.769531 3.9375 -11.65625 4.34375 -11.4375 C 4.75 -11.21875 5.09375 -10.875 5.375 -10.40625 C 5.582031 -10.0625 5.765625 -9.75 5.921875 -9.46875 C 6.085938 -9.1875 6.242188 -8.910156 6.390625 -8.640625 C 6.546875 -8.378906 6.703125 -8.101562 6.859375 -7.8125 C 7.023438 -7.519531 7.210938 -7.1875 7.421875 -6.8125 C 7.453125 -6.757812 7.476562 -6.710938 7.5 -6.671875 C 7.53125 -6.628906 7.554688 -6.585938 7.578125 -6.546875 C 7.585938 -6.554688 7.59375 -6.5625 7.59375 -6.5625 C 7.601562 -6.5625 7.613281 -6.566406 7.625 -6.578125 Z M 7.625 -6.578125 "/></g></g></g><g fill="#2d323c" fill-opacity="1"><g transform="translate(42.483279, 92.956139)"><g><path d="M 0.640625 -2.703125 C 0.628906 -2.960938 0.617188 -3.316406 0.609375 -3.765625 C 0.597656 -4.210938 0.59375 -4.71875 0.59375 -5.28125 C 0.59375 -5.84375 0.597656 -6.421875 0.609375 -7.015625 C 0.617188 -7.609375 0.632812 -8.191406 0.65625 -8.765625 C 0.675781 -9.347656 0.695312 -9.882812 0.71875 -10.375 C 0.75 -10.863281 0.785156 -11.273438 0.828125 -11.609375 C 1.222656 -11.640625 1.695312 -11.664062 2.25 -11.6875 C 2.8125 -11.707031 3.410156 -11.722656 4.046875 -11.734375 C 4.679688 -11.742188 5.320312 -11.738281 5.96875 -11.71875 C 6.613281 -11.707031 7.222656 -11.691406 7.796875 -11.671875 C 8.367188 -11.648438 8.863281 -11.625 9.28125 -11.59375 C 9.34375 -11.488281 9.398438 -11.332031 9.453125 -11.125 C 9.515625 -10.914062 9.546875 -10.675781 9.546875 -10.40625 C 9.554688 -10.144531 9.523438 -9.875 9.453125 -9.59375 C 9.378906 -9.320312 9.253906 -9.070312 9.078125 -8.84375 C 8.898438 -8.613281 8.65625 -8.425781 8.34375 -8.28125 C 8.039062 -8.144531 7.65625 -8.078125 7.1875 -8.078125 C 7.03125 -8.078125 6.882812 -8.078125 6.75 -8.078125 C 6.625 -8.078125 6.476562 -8.078125 6.3125 -8.078125 C 6.15625 -8.078125 5.953125 -8.078125 5.703125 -8.078125 C 5.460938 -8.078125 5.15625 -8.078125 4.78125 -8.078125 C 4.78125 -7.984375 4.78125 -7.882812 4.78125 -7.78125 C 4.78125 -7.6875 4.78125 -7.582031 4.78125 -7.46875 C 4.957031 -7.46875 5.191406 -7.46875 5.484375 -7.46875 C 5.785156 -7.476562 6.113281 -7.484375 6.46875 -7.484375 C 6.820312 -7.484375 7.164062 -7.46875 7.5 -7.4375 C 7.84375 -7.40625 8.140625 -7.351562 8.390625 -7.28125 C 8.617188 -6.757812 8.710938 -6.273438 8.671875 -5.828125 C 8.640625 -5.390625 8.46875 -5.03125 8.15625 -4.75 C 7.851562 -4.46875 7.410156 -4.3125 6.828125 -4.28125 C 6.640625 -4.269531 6.457031 -4.265625 6.28125 -4.265625 C 6.113281 -4.265625 5.914062 -4.265625 5.6875 -4.265625 C 5.457031 -4.273438 5.160156 -4.28125 4.796875 -4.28125 C 4.796875 -4.15625 4.796875 -4.035156 4.796875 -3.921875 C 4.796875 -3.804688 4.796875 -3.6875 4.796875 -3.5625 C 4.835938 -3.5625 4.878906 -3.5625 4.921875 -3.5625 C 4.972656 -3.5625 5.019531 -3.5625 5.0625 -3.5625 C 5.6875 -3.5625 6.3125 -3.5625 6.9375 -3.5625 C 7.570312 -3.5625 8.195312 -3.5625 8.8125 -3.5625 C 9.039062 -3.25 9.1875 -2.90625 9.25 -2.53125 C 9.3125 -2.15625 9.285156 -1.785156 9.171875 -1.421875 C 9.054688 -1.066406 8.832031 -0.757812 8.5 -0.5 C 8.175781 -0.238281 7.738281 -0.0703125 7.1875 0 C 6.988281 0.0195312 6.722656 0.0390625 6.390625 0.0625 C 6.054688 0.0820312 5.691406 0.09375 5.296875 0.09375 C 4.898438 0.101562 4.503906 0.101562 4.109375 0.09375 C 3.710938 0.0820312 3.359375 0.0664062 3.046875 0.046875 C 2.734375 0.0234375 2.488281 -0.00390625 2.3125 -0.046875 C 1.769531 -0.179688 1.367188 -0.457031 1.109375 -0.875 C 0.847656 -1.300781 0.691406 -1.910156 0.640625 -2.703125 Z M 0.640625 -2.703125 "/></g></g></g><g fill="#2d323c" fill-opacity="1"><g transform="translate(52.329386, 92.956139)"><g><path d="M 8.796875 -5.515625 C 8.890625 -5.304688 9.007812 -5.046875 9.15625 -4.734375 C 9.3125 -4.421875 9.476562 -4.082031 9.65625 -3.71875 C 9.832031 -3.363281 10 -3.007812 10.15625 -2.65625 C 10.320312 -2.300781 10.460938 -1.972656 10.578125 -1.671875 C 10.554688 -1.335938 10.4375 -1.023438 10.21875 -0.734375 C 10 -0.441406 9.722656 -0.207031 9.390625 -0.03125 C 9.066406 0.144531 8.710938 0.234375 8.328125 0.234375 C 7.953125 0.242188 7.582031 0.132812 7.21875 -0.09375 C 6.851562 -0.320312 6.535156 -0.703125 6.265625 -1.234375 C 6.171875 -1.429688 6.050781 -1.695312 5.90625 -2.03125 C 5.757812 -2.375 5.609375 -2.738281 5.453125 -3.125 C 5.265625 -2.695312 5.070312 -2.273438 4.875 -1.859375 C 4.6875 -1.441406 4.519531 -1.066406 4.375 -0.734375 C 4.238281 -0.410156 4.140625 -0.1875 4.078125 -0.0625 C 3.429688 0.0820312 2.890625 0.117188 2.453125 0.046875 C 2.015625 -0.015625 1.664062 -0.148438 1.40625 -0.359375 C 1.144531 -0.578125 0.957031 -0.828125 0.84375 -1.109375 C 0.726562 -1.390625 0.660156 -1.671875 0.640625 -1.953125 C 0.628906 -2.234375 0.65625 -2.472656 0.71875 -2.671875 C 0.84375 -3.066406 0.992188 -3.429688 1.171875 -3.765625 C 1.347656 -4.097656 1.523438 -4.414062 1.703125 -4.71875 C 1.890625 -5.019531 2.054688 -5.304688 2.203125 -5.578125 C 2.222656 -5.628906 2.226562 -5.6875 2.21875 -5.75 C 2.21875 -5.8125 2.207031 -5.867188 2.1875 -5.921875 C 1.875 -6.609375 1.554688 -7.296875 1.234375 -7.984375 C 0.910156 -8.671875 0.585938 -9.359375 0.265625 -10.046875 C 0.316406 -10.378906 0.46875 -10.664062 0.71875 -10.90625 C 0.96875 -11.15625 1.265625 -11.347656 1.609375 -11.484375 C 1.953125 -11.628906 2.304688 -11.707031 2.671875 -11.71875 C 3.035156 -11.738281 3.367188 -11.675781 3.671875 -11.53125 C 3.984375 -11.394531 4.21875 -11.175781 4.375 -10.875 C 4.582031 -10.46875 4.785156 -10.03125 4.984375 -9.5625 C 5.191406 -9.09375 5.382812 -8.640625 5.5625 -8.203125 C 5.832031 -8.753906 6.128906 -9.335938 6.453125 -9.953125 C 6.773438 -10.566406 7.101562 -11.132812 7.4375 -11.65625 C 7.738281 -11.757812 8.050781 -11.796875 8.375 -11.765625 C 8.695312 -11.742188 9.007812 -11.65625 9.3125 -11.5 C 9.613281 -11.351562 9.867188 -11.15625 10.078125 -10.90625 C 10.296875 -10.65625 10.4375 -10.351562 10.5 -10 C 10.5625 -9.65625 10.515625 -9.265625 10.359375 -8.828125 C 10.171875 -8.335938 9.941406 -7.867188 9.671875 -7.421875 C 9.410156 -6.984375 9.128906 -6.46875 8.828125 -5.875 C 8.765625 -5.757812 8.753906 -5.640625 8.796875 -5.515625 Z M 8.796875 -5.515625 "/></g></g></g><g fill="#2d323c" fill-opacity="1"><g transform="translate(63.321477, 92.956139)"><g><path d="M 10.515625 -11.671875 C 10.640625 -11.503906 10.742188 -11.269531 10.828125 -10.96875 C 10.910156 -10.664062 10.945312 -10.335938 10.9375 -9.984375 C 10.925781 -9.628906 10.847656 -9.285156 10.703125 -8.953125 C 10.566406 -8.628906 10.34375 -8.351562 10.03125 -8.125 C 9.726562 -7.90625 9.316406 -7.78125 8.796875 -7.75 C 8.597656 -7.738281 8.425781 -7.726562 8.28125 -7.71875 C 8.144531 -7.707031 8.0625 -7.703125 8.03125 -7.703125 C 8.050781 -7.265625 8.0625 -6.78125 8.0625 -6.25 C 8.070312 -5.726562 8.070312 -5.191406 8.0625 -4.640625 C 8.050781 -4.085938 8.035156 -3.546875 8.015625 -3.015625 C 7.992188 -2.492188 7.96875 -2.003906 7.9375 -1.546875 C 7.90625 -1.085938 7.863281 -0.703125 7.8125 -0.390625 C 7.613281 -0.171875 7.363281 -0.015625 7.0625 0.078125 C 6.769531 0.171875 6.453125 0.195312 6.109375 0.15625 C 5.773438 0.113281 5.445312 -0.00390625 5.125 -0.203125 C 4.800781 -0.398438 4.515625 -0.675781 4.265625 -1.03125 C 4.023438 -1.394531 3.851562 -1.847656 3.75 -2.390625 C 3.71875 -2.554688 3.691406 -2.820312 3.671875 -3.1875 C 3.648438 -3.550781 3.628906 -3.972656 3.609375 -4.453125 C 3.585938 -4.941406 3.570312 -5.460938 3.5625 -6.015625 C 3.5625 -6.578125 3.5625 -7.140625 3.5625 -7.703125 C 3.175781 -7.671875 2.773438 -7.65625 2.359375 -7.65625 C 1.953125 -7.664062 1.554688 -7.710938 1.171875 -7.796875 C 1.023438 -7.984375 0.914062 -8.226562 0.84375 -8.53125 C 0.769531 -8.84375 0.75 -9.171875 0.78125 -9.515625 C 0.8125 -9.859375 0.898438 -10.1875 1.046875 -10.5 C 1.203125 -10.8125 1.421875 -11.070312 1.703125 -11.28125 C 1.992188 -11.488281 2.363281 -11.609375 2.8125 -11.640625 C 3.0625 -11.648438 3.390625 -11.660156 3.796875 -11.671875 C 4.203125 -11.679688 4.65625 -11.6875 5.15625 -11.6875 C 5.664062 -11.6875 6.1875 -11.6875 6.71875 -11.6875 C 7.25 -11.6875 7.757812 -11.679688 8.25 -11.671875 C 8.75 -11.671875 9.195312 -11.671875 9.59375 -11.671875 C 9.988281 -11.671875 10.296875 -11.671875 10.515625 -11.671875 Z M 10.515625 -11.671875 "/></g></g></g><g fill="#2d323c" fill-opacity="1"><g transform="translate(74.816398, 92.956139)"><g><path d="M 2.765625 -7.328125 C 3.046875 -7.378906 3.40625 -7.414062 3.84375 -7.4375 C 4.289062 -7.457031 4.773438 -7.46875 5.296875 -7.46875 C 5.828125 -7.46875 6.367188 -7.457031 6.921875 -7.4375 C 7.472656 -7.414062 8.003906 -7.382812 8.515625 -7.34375 C 9.023438 -7.300781 9.484375 -7.253906 9.890625 -7.203125 C 10.109375 -7.003906 10.265625 -6.75 10.359375 -6.4375 C 10.453125 -6.132812 10.476562 -5.804688 10.4375 -5.453125 C 10.394531 -5.109375 10.273438 -4.769531 10.078125 -4.4375 C 9.878906 -4.113281 9.597656 -3.828125 9.234375 -3.578125 C 8.878906 -3.328125 8.429688 -3.148438 7.890625 -3.046875 C 7.703125 -3.015625 7.4375 -2.984375 7.09375 -2.953125 C 6.757812 -2.921875 6.367188 -2.894531 5.921875 -2.875 C 5.472656 -2.851562 5.003906 -2.835938 4.515625 -2.828125 C 4.035156 -2.828125 3.5625 -2.832031 3.09375 -2.84375 C 2.625 -2.863281 2.195312 -2.894531 1.8125 -2.9375 C 1.425781 -2.976562 1.109375 -3.03125 0.859375 -3.09375 C 0.671875 -3.3125 0.519531 -3.582031 0.40625 -3.90625 C 0.300781 -4.238281 0.253906 -4.582031 0.265625 -4.9375 C 0.285156 -5.289062 0.378906 -5.632812 0.546875 -5.96875 C 0.722656 -6.300781 0.988281 -6.585938 1.34375 -6.828125 C 1.707031 -7.078125 2.179688 -7.242188 2.765625 -7.328125 Z M 2.765625 -7.328125 "/></g></g></g><g fill="#2d323c" fill-opacity="1"><g transform="translate(85.504456, 92.956139)"><g><path d="M 7.609375 -7.90625 C 7.265625 -7.988281 6.953125 -8.015625 6.671875 -7.984375 C 6.398438 -7.960938 6.109375 -7.851562 5.796875 -7.65625 C 5.390625 -7.40625 5.125 -7.070312 5 -6.65625 C 4.882812 -6.238281 4.859375 -5.8125 4.921875 -5.375 C 4.984375 -4.84375 5.179688 -4.429688 5.515625 -4.140625 C 5.847656 -3.859375 6.21875 -3.722656 6.625 -3.734375 C 6.945312 -3.734375 7.195312 -3.796875 7.375 -3.921875 C 7.550781 -4.054688 7.679688 -4.226562 7.765625 -4.4375 C 7.847656 -4.65625 7.894531 -4.882812 7.90625 -5.125 C 7.925781 -5.363281 7.941406 -5.597656 7.953125 -5.828125 C 8.066406 -5.972656 8.257812 -6.082031 8.53125 -6.15625 C 8.8125 -6.226562 9.128906 -6.253906 9.484375 -6.234375 C 9.847656 -6.222656 10.195312 -6.148438 10.53125 -6.015625 C 10.875 -5.878906 11.160156 -5.679688 11.390625 -5.421875 C 11.617188 -5.160156 11.742188 -4.828125 11.765625 -4.421875 C 11.785156 -4.117188 11.753906 -3.765625 11.671875 -3.359375 C 11.597656 -2.960938 11.445312 -2.5625 11.21875 -2.15625 C 10.988281 -1.75 10.671875 -1.367188 10.265625 -1.015625 C 9.867188 -0.660156 9.359375 -0.375 8.734375 -0.15625 C 8.117188 0.0507812 7.375 0.15625 6.5 0.15625 C 5.539062 0.15625 4.726562 0.0390625 4.0625 -0.1875 C 3.394531 -0.425781 2.84375 -0.734375 2.40625 -1.109375 C 1.976562 -1.492188 1.632812 -1.90625 1.375 -2.34375 C 1.125 -2.78125 0.925781 -3.195312 0.78125 -3.59375 C 0.550781 -4.257812 0.441406 -4.972656 0.453125 -5.734375 C 0.460938 -6.492188 0.582031 -7.21875 0.8125 -7.90625 C 1.0625 -8.664062 1.445312 -9.3125 1.96875 -9.84375 C 2.5 -10.375 3.125 -10.8125 3.84375 -11.15625 C 4.820312 -11.632812 5.882812 -11.851562 7.03125 -11.8125 C 8.1875 -11.769531 9.390625 -11.390625 10.640625 -10.671875 C 10.753906 -10.222656 10.769531 -9.820312 10.6875 -9.46875 C 10.613281 -9.113281 10.46875 -8.804688 10.25 -8.546875 C 10.039062 -8.296875 9.785156 -8.101562 9.484375 -7.96875 C 9.191406 -7.832031 8.882812 -7.753906 8.5625 -7.734375 C 8.238281 -7.722656 7.921875 -7.78125 7.609375 -7.90625 Z M 7.609375 -7.90625 "/></g></g></g><g fill="#2d323c" fill-opacity="1"><g transform="translate(97.665922, 92.956139)"><g><path d="M 0.640625 -2.703125 C 0.628906 -2.960938 0.617188 -3.316406 0.609375 -3.765625 C 0.597656 -4.210938 0.59375 -4.71875 0.59375 -5.28125 C 0.59375 -5.84375 0.597656 -6.421875 0.609375 -7.015625 C 0.617188 -7.609375 0.632812 -8.191406 0.65625 -8.765625 C 0.675781 -9.347656 0.695312 -9.882812 0.71875 -10.375 C 0.75 -10.863281 0.785156 -11.273438 0.828125 -11.609375 C 1.222656 -11.640625 1.695312 -11.664062 2.25 -11.6875 C 2.8125 -11.707031 3.410156 -11.722656 4.046875 -11.734375 C 4.679688 -11.742188 5.320312 -11.738281 5.96875 -11.71875 C 6.613281 -11.707031 7.222656 -11.691406 7.796875 -11.671875 C 8.367188 -11.648438 8.863281 -11.625 9.28125 -11.59375 C 9.34375 -11.488281 9.398438 -11.332031 9.453125 -11.125 C 9.515625 -10.914062 9.546875 -10.675781 9.546875 -10.40625 C 9.554688 -10.144531 9.523438 -9.875 9.453125 -9.59375 C 9.378906 -9.320312 9.253906 -9.070312 9.078125 -8.84375 C 8.898438 -8.613281 8.65625 -8.425781 8.34375 -8.28125 C 8.039062 -8.144531 7.65625 -8.078125 7.1875 -8.078125 C 7.03125 -8.078125 6.882812 -8.078125 6.75 -8.078125 C 6.625 -8.078125 6.476562 -8.078125 6.3125 -8.078125 C 6.15625 -8.078125 5.953125 -8.078125 5.703125 -8.078125 C 5.460938 -8.078125 5.15625 -8.078125 4.78125 -8.078125 C 4.78125 -7.984375 4.78125 -7.882812 4.78125 -7.78125 C 4.78125 -7.6875 4.78125 -7.582031 4.78125 -7.46875 C 4.957031 -7.46875 5.191406 -7.46875 5.484375 -7.46875 C 5.785156 -7.476562 6.113281 -7.484375 6.46875 -7.484375 C 6.820312 -7.484375 7.164062 -7.46875 7.5 -7.4375 C 7.84375 -7.40625 8.140625 -7.351562 8.390625 -7.28125 C 8.617188 -6.757812 8.710938 -6.273438 8.671875 -5.828125 C 8.640625 -5.390625 8.46875 -5.03125 8.15625 -4.75 C 7.851562 -4.46875 7.410156 -4.3125 6.828125 -4.28125 C 6.640625 -4.269531 6.457031 -4.265625 6.28125 -4.265625 C 6.113281 -4.265625 5.914062 -4.265625 5.6875 -4.265625 C 5.457031 -4.273438 5.160156 -4.28125 4.796875 -4.28125 C 4.796875 -4.15625 4.796875 -4.035156 4.796875 -3.921875 C 4.796875 -3.804688 4.796875 -3.6875 4.796875 -3.5625 C 4.835938 -3.5625 4.878906 -3.5625 4.921875 -3.5625 C 4.972656 -3.5625 5.019531 -3.5625 5.0625 -3.5625 C 5.6875 -3.5625 6.3125 -3.5625 6.9375 -3.5625 C 7.570312 -3.5625 8.195312 -3.5625 8.8125 -3.5625 C 9.039062 -3.25 9.1875 -2.90625 9.25 -2.53125 C 9.3125 -2.15625 9.285156 -1.785156 9.171875 -1.421875 C 9.054688 -1.066406 8.832031 -0.757812 8.5 -0.5 C 8.175781 -0.238281 7.738281 -0.0703125 7.1875 0 C 6.988281 0.0195312 6.722656 0.0390625 6.390625 0.0625 C 6.054688 0.0820312 5.691406 0.09375 5.296875 0.09375 C 4.898438 0.101562 4.503906 0.101562 4.109375 0.09375 C 3.710938 0.0820312 3.359375 0.0664062 3.046875 0.046875 C 2.734375 0.0234375 2.488281 -0.00390625 2.3125 -0.046875 C 1.769531 -0.179688 1.367188 -0.457031 1.109375 -0.875 C 0.847656 -1.300781 0.691406 -1.910156 0.640625 -2.703125 Z M 0.640625 -2.703125 "/></g></g></g><g fill="#2d323c" fill-opacity="1"><g transform="translate(107.512034, 92.956139)"><g><path d="M 7.625 -6.578125 C 7.625 -7.109375 7.625 -7.601562 7.625 -8.0625 C 7.625 -8.519531 7.625 -8.976562 7.625 -9.4375 C 7.625 -9.90625 7.625 -10.410156 7.625 -10.953125 C 7.914062 -11.296875 8.242188 -11.535156 8.609375 -11.671875 C 8.972656 -11.816406 9.347656 -11.875 9.734375 -11.84375 C 10.117188 -11.8125 10.46875 -11.703125 10.78125 -11.515625 C 11.101562 -11.335938 11.363281 -11.097656 11.5625 -10.796875 C 11.757812 -10.492188 11.859375 -10.144531 11.859375 -9.75 C 11.859375 -9.507812 11.859375 -9.171875 11.859375 -8.734375 C 11.867188 -8.304688 11.875 -7.816406 11.875 -7.265625 C 11.882812 -6.710938 11.890625 -6.125 11.890625 -5.5 C 11.890625 -4.882812 11.890625 -4.273438 11.890625 -3.671875 C 11.890625 -3.066406 11.878906 -2.5 11.859375 -1.96875 C 11.847656 -1.4375 11.828125 -0.972656 11.796875 -0.578125 C 11.546875 -0.328125 11.210938 -0.132812 10.796875 0 C 10.390625 0.132812 9.945312 0.1875 9.46875 0.15625 C 8.988281 0.132812 8.515625 0.0078125 8.046875 -0.21875 C 7.585938 -0.445312 7.175781 -0.804688 6.8125 -1.296875 C 6.65625 -1.523438 6.488281 -1.78125 6.3125 -2.0625 C 6.132812 -2.34375 5.960938 -2.625 5.796875 -2.90625 C 5.640625 -3.195312 5.5 -3.457031 5.375 -3.6875 C 5.25 -3.914062 5.15625 -4.082031 5.09375 -4.1875 C 5.070312 -4.226562 5.046875 -4.265625 5.015625 -4.296875 C 4.992188 -4.328125 4.972656 -4.359375 4.953125 -4.390625 C 4.941406 -4.390625 4.925781 -4.382812 4.90625 -4.375 C 4.894531 -4.375 4.878906 -4.375 4.859375 -4.375 C 4.867188 -4.019531 4.878906 -3.695312 4.890625 -3.40625 C 4.910156 -3.113281 4.925781 -2.828125 4.9375 -2.546875 C 4.957031 -2.265625 4.96875 -1.957031 4.96875 -1.625 C 4.976562 -1.300781 4.976562 -0.929688 4.96875 -0.515625 C 4.59375 -0.203125 4.203125 0 3.796875 0.09375 C 3.398438 0.195312 3.019531 0.21875 2.65625 0.15625 C 2.300781 0.101562 1.976562 -0.0078125 1.6875 -0.1875 C 1.394531 -0.363281 1.160156 -0.578125 0.984375 -0.828125 C 0.816406 -1.085938 0.726562 -1.359375 0.71875 -1.640625 C 0.707031 -2.117188 0.695312 -2.648438 0.6875 -3.234375 C 0.675781 -3.816406 0.664062 -4.421875 0.65625 -5.046875 C 0.644531 -5.671875 0.640625 -6.285156 0.640625 -6.890625 C 0.640625 -7.503906 0.640625 -8.082031 0.640625 -8.625 C 0.648438 -9.164062 0.660156 -9.644531 0.671875 -10.0625 C 0.691406 -10.476562 0.710938 -10.800781 0.734375 -11.03125 C 1.015625 -11.257812 1.359375 -11.441406 1.765625 -11.578125 C 2.179688 -11.722656 2.613281 -11.789062 3.0625 -11.78125 C 3.507812 -11.769531 3.9375 -11.65625 4.34375 -11.4375 C 4.75 -11.21875 5.09375 -10.875 5.375 -10.40625 C 5.582031 -10.0625 5.765625 -9.75 5.921875 -9.46875 C 6.085938 -9.1875 6.242188 -8.910156 6.390625 -8.640625 C 6.546875 -8.378906 6.703125 -8.101562 6.859375 -7.8125 C 7.023438 -7.519531 7.210938 -7.1875 7.421875 -6.8125 C 7.453125 -6.757812 7.476562 -6.710938 7.5 -6.671875 C 7.53125 -6.628906 7.554688 -6.585938 7.578125 -6.546875 C 7.585938 -6.554688 7.59375 -6.5625 7.59375 -6.5625 C 7.601562 -6.5625 7.613281 -6.566406 7.625 -6.578125 Z M 7.625 -6.578125 "/></g></g></g><g fill="#2d323c" fill-opacity="1"><g transform="translate(31.674134, 106.021959)"><g><path d="M 4.09375 -1.84375 C 3.90625 -1.695312 3.707031 -1.59375 3.5 -1.53125 C 3.300781 -1.476562 3.113281 -1.453125 2.9375 -1.453125 C 2.757812 -1.453125 2.613281 -1.460938 2.5 -1.484375 C 2.382812 -1.503906 2.316406 -1.519531 2.296875 -1.53125 C 2.296875 -1.53125 2.285156 -1.53125 2.265625 -1.53125 C 2.265625 -1.53125 2.265625 -1.523438 2.265625 -1.515625 C 2.265625 -1.492188 2.265625 -1.429688 2.265625 -1.328125 C 2.265625 -1.234375 2.257812 -1.113281 2.25 -0.96875 C 2.25 -0.820312 2.242188 -0.671875 2.234375 -0.515625 C 2.234375 -0.359375 2.226562 -0.207031 2.21875 -0.0625 C 2.125 0.03125 2.007812 0.0976562 1.875 0.140625 C 1.738281 0.191406 1.59375 0.207031 1.4375 0.1875 C 1.289062 0.175781 1.144531 0.128906 1 0.046875 C 0.851562 -0.0234375 0.722656 -0.140625 0.609375 -0.296875 C 0.492188 -0.453125 0.414062 -0.644531 0.375 -0.875 C 0.351562 -0.945312 0.335938 -1.054688 0.328125 -1.203125 C 0.328125 -1.359375 0.320312 -1.539062 0.3125 -1.75 C 0.300781 -1.96875 0.296875 -2.195312 0.296875 -2.4375 C 0.296875 -2.6875 0.296875 -2.9375 0.296875 -3.1875 C 0.304688 -3.4375 0.316406 -3.671875 0.328125 -3.890625 C 0.335938 -4.117188 0.347656 -4.316406 0.359375 -4.484375 C 0.378906 -4.660156 0.398438 -4.789062 0.421875 -4.875 C 0.503906 -4.945312 0.625 -5.015625 0.78125 -5.078125 C 0.945312 -5.148438 1.132812 -5.207031 1.34375 -5.25 C 1.5625 -5.289062 1.796875 -5.316406 2.046875 -5.328125 C 2.296875 -5.347656 2.546875 -5.347656 2.796875 -5.328125 C 3.046875 -5.304688 3.285156 -5.265625 3.515625 -5.203125 C 3.742188 -5.140625 3.941406 -5.050781 4.109375 -4.9375 C 4.273438 -4.820312 4.410156 -4.664062 4.515625 -4.46875 C 4.628906 -4.28125 4.707031 -4.066406 4.75 -3.828125 C 4.800781 -3.597656 4.8125 -3.359375 4.78125 -3.109375 C 4.757812 -2.859375 4.691406 -2.625 4.578125 -2.40625 C 4.460938 -2.1875 4.300781 -2 4.09375 -1.84375 Z M 3.0625 -3.3125 C 3.0625 -3.382812 3.03125 -3.453125 2.96875 -3.515625 C 2.90625 -3.578125 2.820312 -3.617188 2.71875 -3.640625 C 2.613281 -3.660156 2.503906 -3.632812 2.390625 -3.5625 C 2.390625 -3.457031 2.390625 -3.363281 2.390625 -3.28125 C 2.390625 -3.195312 2.390625 -3.109375 2.390625 -3.015625 C 2.390625 -3.003906 2.394531 -2.988281 2.40625 -2.96875 C 2.425781 -2.957031 2.441406 -2.953125 2.453125 -2.953125 C 2.515625 -2.953125 2.578125 -2.953125 2.640625 -2.953125 C 2.703125 -2.953125 2.769531 -2.957031 2.84375 -2.96875 C 2.988281 -3 3.0625 -3.113281 3.0625 -3.3125 Z M 3.0625 -3.3125 "/></g></g></g><g fill="#2d323c" fill-opacity="1"><g transform="translate(39.744541, 106.021959)"><g><path d="M 2.171875 -3.40625 C 2.347656 -3.40625 2.515625 -3.40625 2.671875 -3.40625 C 2.835938 -3.40625 3.003906 -3.40625 3.171875 -3.40625 C 3.179688 -3.59375 3.1875 -3.789062 3.1875 -4 C 3.1875 -4.207031 3.1875 -4.398438 3.1875 -4.578125 C 3.195312 -4.753906 3.210938 -4.890625 3.234375 -4.984375 C 3.359375 -5.085938 3.503906 -5.15625 3.671875 -5.1875 C 3.835938 -5.226562 4.003906 -5.234375 4.171875 -5.203125 C 4.335938 -5.179688 4.492188 -5.125 4.640625 -5.03125 C 4.785156 -4.945312 4.90625 -4.832031 5 -4.6875 C 5.09375 -4.539062 5.140625 -4.367188 5.140625 -4.171875 C 5.140625 -4.066406 5.140625 -3.921875 5.140625 -3.734375 C 5.140625 -3.554688 5.140625 -3.347656 5.140625 -3.109375 C 5.140625 -2.867188 5.140625 -2.609375 5.140625 -2.328125 C 5.140625 -2.054688 5.132812 -1.78125 5.125 -1.5 C 5.125 -1.21875 5.125 -0.945312 5.125 -0.6875 C 5.125 -0.59375 5.125 -0.488281 5.125 -0.375 C 5.125 -0.269531 5.117188 -0.1875 5.109375 -0.125 C 5.078125 -0.0820312 5.007812 -0.0390625 4.90625 0 C 4.800781 0.03125 4.679688 0.0507812 4.546875 0.0625 C 4.410156 0.0820312 4.269531 0.0859375 4.125 0.078125 C 3.976562 0.0664062 3.835938 0.0351562 3.703125 -0.015625 C 3.578125 -0.0664062 3.46875 -0.140625 3.375 -0.234375 C 3.289062 -0.335938 3.238281 -0.46875 3.21875 -0.625 C 3.207031 -0.695312 3.195312 -0.78125 3.1875 -0.875 C 3.1875 -0.976562 3.179688 -1.082031 3.171875 -1.1875 C 3.171875 -1.300781 3.171875 -1.40625 3.171875 -1.5 C 3.171875 -1.59375 3.171875 -1.664062 3.171875 -1.71875 C 3.003906 -1.71875 2.84375 -1.71875 2.6875 -1.71875 C 2.53125 -1.71875 2.363281 -1.71875 2.1875 -1.71875 C 2.1875 -1.46875 2.1875 -1.207031 2.1875 -0.9375 C 2.1875 -0.664062 2.1875 -0.394531 2.1875 -0.125 C 2.144531 -0.0820312 2.066406 -0.0390625 1.953125 0 C 1.847656 0.0390625 1.722656 0.0664062 1.578125 0.078125 C 1.441406 0.0976562 1.300781 0.0976562 1.15625 0.078125 C 1.007812 0.0664062 0.867188 0.03125 0.734375 -0.03125 C 0.609375 -0.101562 0.5 -0.207031 0.40625 -0.34375 C 0.320312 -0.476562 0.273438 -0.648438 0.265625 -0.859375 C 0.253906 -0.953125 0.242188 -1.09375 0.234375 -1.28125 C 0.234375 -1.476562 0.226562 -1.703125 0.21875 -1.953125 C 0.21875 -2.203125 0.210938 -2.460938 0.203125 -2.734375 C 0.203125 -3.015625 0.203125 -3.289062 0.203125 -3.5625 C 0.203125 -3.832031 0.203125 -4.082031 0.203125 -4.3125 C 0.203125 -4.550781 0.207031 -4.75 0.21875 -4.90625 C 0.363281 -5.019531 0.519531 -5.097656 0.6875 -5.140625 C 0.851562 -5.191406 1.019531 -5.210938 1.1875 -5.203125 C 1.351562 -5.191406 1.503906 -5.148438 1.640625 -5.078125 C 1.785156 -5.015625 1.90625 -4.925781 2 -4.8125 C 2.09375 -4.695312 2.144531 -4.5625 2.15625 -4.40625 C 2.175781 -4.25 2.1875 -4.097656 2.1875 -3.953125 C 2.1875 -3.804688 2.179688 -3.679688 2.171875 -3.578125 C 2.171875 -3.472656 2.171875 -3.414062 2.171875 -3.40625 Z M 2.171875 -3.40625 "/></g></g></g><g fill="#2d323c" fill-opacity="1"><g transform="translate(48.147347, 106.021959)"><g><path d="M 2.875 -5.296875 C 3.226562 -5.304688 3.535156 -5.269531 3.796875 -5.1875 C 4.066406 -5.101562 4.296875 -4.992188 4.484375 -4.859375 C 4.671875 -4.722656 4.820312 -4.582031 4.9375 -4.4375 C 5.0625 -4.289062 5.160156 -4.148438 5.234375 -4.015625 C 5.304688 -3.878906 5.359375 -3.769531 5.390625 -3.6875 C 5.515625 -3.351562 5.585938 -3.015625 5.609375 -2.671875 C 5.628906 -2.335938 5.585938 -2 5.484375 -1.65625 C 5.203125 -0.75 4.597656 -0.1875 3.671875 0.03125 C 3.296875 0.125 2.925781 0.148438 2.5625 0.109375 C 2.195312 0.078125 1.84375 -0.0234375 1.5 -0.203125 C 1.164062 -0.367188 0.898438 -0.585938 0.703125 -0.859375 C 0.515625 -1.140625 0.378906 -1.457031 0.296875 -1.8125 C 0.242188 -2.03125 0.210938 -2.257812 0.203125 -2.5 C 0.191406 -2.738281 0.203125 -2.96875 0.234375 -3.1875 C 0.273438 -3.40625 0.335938 -3.601562 0.421875 -3.78125 C 0.503906 -3.96875 0.613281 -4.148438 0.75 -4.328125 C 0.882812 -4.503906 1.046875 -4.664062 1.234375 -4.8125 C 1.429688 -4.957031 1.664062 -5.070312 1.9375 -5.15625 C 2.207031 -5.25 2.519531 -5.296875 2.875 -5.296875 Z M 2.90625 -3.4375 C 2.769531 -3.4375 2.644531 -3.398438 2.53125 -3.328125 C 2.425781 -3.265625 2.34375 -3.160156 2.28125 -3.015625 C 2.21875 -2.878906 2.195312 -2.707031 2.21875 -2.5 C 2.226562 -2.289062 2.269531 -2.128906 2.34375 -2.015625 C 2.425781 -1.898438 2.519531 -1.816406 2.625 -1.765625 C 2.726562 -1.710938 2.828125 -1.691406 2.921875 -1.703125 C 3.015625 -1.703125 3.109375 -1.726562 3.203125 -1.78125 C 3.296875 -1.84375 3.375 -1.929688 3.4375 -2.046875 C 3.507812 -2.160156 3.550781 -2.316406 3.5625 -2.515625 C 3.582031 -2.710938 3.5625 -2.878906 3.5 -3.015625 C 3.4375 -3.148438 3.351562 -3.253906 3.25 -3.328125 C 3.144531 -3.398438 3.03125 -3.4375 2.90625 -3.4375 Z M 2.90625 -3.4375 "/></g></g></g><g fill="#2d323c" fill-opacity="1"><g transform="translate(56.996818, 106.021959)"><g><path d="M 3.390625 -2.921875 C 3.390625 -3.160156 3.390625 -3.378906 3.390625 -3.578125 C 3.390625 -3.785156 3.390625 -3.988281 3.390625 -4.1875 C 3.390625 -4.394531 3.390625 -4.617188 3.390625 -4.859375 C 3.515625 -5.015625 3.65625 -5.125 3.8125 -5.1875 C 3.976562 -5.25 4.144531 -5.269531 4.3125 -5.25 C 4.488281 -5.238281 4.644531 -5.191406 4.78125 -5.109375 C 4.925781 -5.035156 5.039062 -4.929688 5.125 -4.796875 C 5.21875 -4.660156 5.265625 -4.503906 5.265625 -4.328125 C 5.265625 -4.222656 5.265625 -4.070312 5.265625 -3.875 C 5.273438 -3.6875 5.28125 -3.46875 5.28125 -3.21875 C 5.28125 -2.976562 5.28125 -2.71875 5.28125 -2.4375 C 5.28125 -2.164062 5.28125 -1.894531 5.28125 -1.625 C 5.28125 -1.363281 5.273438 -1.113281 5.265625 -0.875 C 5.265625 -0.632812 5.253906 -0.425781 5.234375 -0.25 C 5.128906 -0.144531 4.984375 -0.0625 4.796875 0 C 4.617188 0.0625 4.421875 0.0859375 4.203125 0.078125 C 3.992188 0.0664062 3.785156 0.0078125 3.578125 -0.09375 C 3.367188 -0.195312 3.1875 -0.359375 3.03125 -0.578125 C 2.957031 -0.679688 2.878906 -0.796875 2.796875 -0.921875 C 2.722656 -1.046875 2.648438 -1.171875 2.578125 -1.296875 C 2.503906 -1.421875 2.441406 -1.535156 2.390625 -1.640625 C 2.335938 -1.742188 2.296875 -1.816406 2.265625 -1.859375 C 2.253906 -1.878906 2.242188 -1.894531 2.234375 -1.90625 C 2.222656 -1.914062 2.210938 -1.929688 2.203125 -1.953125 C 2.191406 -1.953125 2.179688 -1.945312 2.171875 -1.9375 C 2.171875 -1.9375 2.164062 -1.9375 2.15625 -1.9375 C 2.164062 -1.78125 2.171875 -1.632812 2.171875 -1.5 C 2.179688 -1.375 2.1875 -1.25 2.1875 -1.125 C 2.195312 -1 2.203125 -0.863281 2.203125 -0.71875 C 2.210938 -0.582031 2.210938 -0.421875 2.203125 -0.234375 C 2.035156 -0.0859375 1.863281 0.00390625 1.6875 0.046875 C 1.507812 0.0859375 1.335938 0.09375 1.171875 0.0625 C 1.015625 0.0390625 0.875 -0.00390625 0.75 -0.078125 C 0.625 -0.160156 0.519531 -0.257812 0.4375 -0.375 C 0.363281 -0.488281 0.328125 -0.609375 0.328125 -0.734375 C 0.316406 -0.941406 0.304688 -1.175781 0.296875 -1.4375 C 0.296875 -1.695312 0.289062 -1.960938 0.28125 -2.234375 C 0.28125 -2.515625 0.28125 -2.789062 0.28125 -3.0625 C 0.28125 -3.332031 0.28125 -3.585938 0.28125 -3.828125 C 0.289062 -4.066406 0.296875 -4.28125 0.296875 -4.46875 C 0.304688 -4.65625 0.316406 -4.800781 0.328125 -4.90625 C 0.453125 -5.007812 0.601562 -5.09375 0.78125 -5.15625 C 0.96875 -5.21875 1.160156 -5.242188 1.359375 -5.234375 C 1.554688 -5.234375 1.742188 -5.179688 1.921875 -5.078125 C 2.109375 -4.984375 2.265625 -4.832031 2.390625 -4.625 C 2.484375 -4.46875 2.5625 -4.328125 2.625 -4.203125 C 2.695312 -4.078125 2.765625 -3.957031 2.828125 -3.84375 C 2.898438 -3.726562 2.972656 -3.601562 3.046875 -3.46875 C 3.117188 -3.34375 3.203125 -3.195312 3.296875 -3.03125 C 3.304688 -3.007812 3.316406 -2.988281 3.328125 -2.96875 C 3.347656 -2.945312 3.363281 -2.925781 3.375 -2.90625 C 3.375 -2.914062 3.375 -2.921875 3.375 -2.921875 C 3.382812 -2.921875 3.390625 -2.921875 3.390625 -2.921875 Z M 3.390625 -2.921875 "/></g></g></g><g fill="#2d323c" fill-opacity="1"><g transform="translate(65.633344, 106.021959)"><g><path d="M 0.28125 -1.203125 C 0.28125 -1.316406 0.273438 -1.472656 0.265625 -1.671875 C 0.265625 -1.867188 0.265625 -2.09375 0.265625 -2.34375 C 0.265625 -2.59375 0.265625 -2.847656 0.265625 -3.109375 C 0.273438 -3.378906 0.285156 -3.640625 0.296875 -3.890625 C 0.304688 -4.148438 0.316406 -4.390625 0.328125 -4.609375 C 0.335938 -4.828125 0.351562 -5.007812 0.375 -5.15625 C 0.539062 -5.175781 0.75 -5.1875 1 -5.1875 C 1.25 -5.195312 1.515625 -5.203125 1.796875 -5.203125 C 2.078125 -5.210938 2.359375 -5.210938 2.640625 -5.203125 C 2.929688 -5.203125 3.203125 -5.195312 3.453125 -5.1875 C 3.710938 -5.175781 3.9375 -5.164062 4.125 -5.15625 C 4.15625 -5.101562 4.179688 -5.03125 4.203125 -4.9375 C 4.222656 -4.84375 4.234375 -4.738281 4.234375 -4.625 C 4.242188 -4.507812 4.234375 -4.390625 4.203125 -4.265625 C 4.171875 -4.140625 4.113281 -4.023438 4.03125 -3.921875 C 3.957031 -3.828125 3.851562 -3.75 3.71875 -3.6875 C 3.582031 -3.625 3.410156 -3.59375 3.203125 -3.59375 C 3.128906 -3.59375 3.0625 -3.59375 3 -3.59375 C 2.945312 -3.59375 2.882812 -3.59375 2.8125 -3.59375 C 2.738281 -3.59375 2.644531 -3.59375 2.53125 -3.59375 C 2.425781 -3.59375 2.289062 -3.59375 2.125 -3.59375 C 2.125 -3.550781 2.125 -3.503906 2.125 -3.453125 C 2.125 -3.410156 2.125 -3.363281 2.125 -3.3125 C 2.195312 -3.3125 2.300781 -3.3125 2.4375 -3.3125 C 2.570312 -3.320312 2.71875 -3.328125 2.875 -3.328125 C 3.03125 -3.328125 3.179688 -3.316406 3.328125 -3.296875 C 3.484375 -3.285156 3.617188 -3.265625 3.734375 -3.234375 C 3.835938 -3.003906 3.878906 -2.789062 3.859375 -2.59375 C 3.835938 -2.394531 3.757812 -2.234375 3.625 -2.109375 C 3.488281 -1.984375 3.289062 -1.914062 3.03125 -1.90625 C 2.945312 -1.894531 2.863281 -1.890625 2.78125 -1.890625 C 2.707031 -1.890625 2.617188 -1.890625 2.515625 -1.890625 C 2.421875 -1.898438 2.289062 -1.90625 2.125 -1.90625 C 2.125 -1.84375 2.125 -1.785156 2.125 -1.734375 C 2.125 -1.691406 2.125 -1.640625 2.125 -1.578125 C 2.144531 -1.578125 2.164062 -1.578125 2.1875 -1.578125 C 2.207031 -1.578125 2.226562 -1.578125 2.25 -1.578125 C 2.53125 -1.578125 2.804688 -1.578125 3.078125 -1.578125 C 3.359375 -1.578125 3.640625 -1.578125 3.921875 -1.578125 C 4.015625 -1.441406 4.078125 -1.289062 4.109375 -1.125 C 4.140625 -0.957031 4.128906 -0.789062 4.078125 -0.625 C 4.023438 -0.46875 3.925781 -0.332031 3.78125 -0.21875 C 3.632812 -0.101562 3.4375 -0.03125 3.1875 0 C 3.101562 0.0078125 2.988281 0.0195312 2.84375 0.03125 C 2.695312 0.0390625 2.535156 0.046875 2.359375 0.046875 C 2.179688 0.046875 2.003906 0.0390625 1.828125 0.03125 C 1.648438 0.03125 1.488281 0.0234375 1.34375 0.015625 C 1.207031 0.00390625 1.101562 -0.00390625 1.03125 -0.015625 C 0.789062 -0.078125 0.609375 -0.203125 0.484375 -0.390625 C 0.367188 -0.578125 0.300781 -0.847656 0.28125 -1.203125 Z M 0.28125 -1.203125 "/></g></g></g><g fill="#2d323c" fill-opacity="1"><g transform="translate(73.038949, 106.021959)"><g><path d="M 1.234375 -3.265625 C 1.359375 -3.285156 1.515625 -3.296875 1.703125 -3.296875 C 1.898438 -3.304688 2.113281 -3.3125 2.34375 -3.3125 C 2.582031 -3.3125 2.828125 -3.304688 3.078125 -3.296875 C 3.328125 -3.296875 3.5625 -3.285156 3.78125 -3.265625 C 4.007812 -3.242188 4.210938 -3.222656 4.390625 -3.203125 C 4.492188 -3.109375 4.566406 -2.992188 4.609375 -2.859375 C 4.648438 -2.722656 4.660156 -2.578125 4.640625 -2.421875 C 4.617188 -2.265625 4.5625 -2.113281 4.46875 -1.96875 C 4.382812 -1.820312 4.265625 -1.691406 4.109375 -1.578125 C 3.953125 -1.472656 3.75 -1.394531 3.5 -1.34375 C 3.425781 -1.332031 3.3125 -1.320312 3.15625 -1.3125 C 3 -1.300781 2.820312 -1.289062 2.625 -1.28125 C 2.425781 -1.269531 2.21875 -1.265625 2 -1.265625 C 1.789062 -1.265625 1.582031 -1.265625 1.375 -1.265625 C 1.164062 -1.273438 0.972656 -1.285156 0.796875 -1.296875 C 0.628906 -1.316406 0.492188 -1.34375 0.390625 -1.375 C 0.296875 -1.46875 0.222656 -1.585938 0.171875 -1.734375 C 0.128906 -1.878906 0.113281 -2.03125 0.125 -2.1875 C 0.132812 -2.351562 0.175781 -2.507812 0.25 -2.65625 C 0.320312 -2.800781 0.4375 -2.925781 0.59375 -3.03125 C 0.757812 -3.144531 0.972656 -3.222656 1.234375 -3.265625 Z M 1.234375 -3.265625 "/></g></g></g><g fill="#2d323c" fill-opacity="1"><g transform="translate(80.818504, 106.021959)"><g><path d="M 3.796875 -2.921875 C 4.054688 -2.765625 4.25 -2.578125 4.375 -2.359375 C 4.5 -2.140625 4.566406 -1.914062 4.578125 -1.6875 C 4.585938 -1.457031 4.550781 -1.234375 4.46875 -1.015625 C 4.394531 -0.804688 4.28125 -0.617188 4.125 -0.453125 C 3.976562 -0.285156 3.8125 -0.160156 3.625 -0.078125 C 3.476562 -0.0234375 3.304688 0.015625 3.109375 0.046875 C 2.910156 0.0859375 2.691406 0.113281 2.453125 0.125 C 2.210938 0.132812 1.96875 0.125 1.71875 0.09375 C 1.476562 0.0625 1.242188 0.00390625 1.015625 -0.078125 C 0.785156 -0.171875 0.578125 -0.296875 0.390625 -0.453125 C 0.285156 -0.578125 0.222656 -0.710938 0.203125 -0.859375 C 0.179688 -1.015625 0.195312 -1.160156 0.25 -1.296875 C 0.300781 -1.429688 0.375 -1.546875 0.46875 -1.640625 C 0.570312 -1.734375 0.695312 -1.789062 0.84375 -1.8125 C 0.988281 -1.832031 1.144531 -1.800781 1.3125 -1.71875 C 1.550781 -1.601562 1.78125 -1.519531 2 -1.46875 C 2.21875 -1.425781 2.398438 -1.421875 2.546875 -1.453125 C 2.691406 -1.492188 2.78125 -1.566406 2.8125 -1.671875 C 2.84375 -1.773438 2.820312 -1.859375 2.75 -1.921875 C 2.675781 -1.992188 2.539062 -2.035156 2.34375 -2.046875 C 2.132812 -2.066406 1.921875 -2.101562 1.703125 -2.15625 C 1.492188 -2.21875 1.296875 -2.300781 1.109375 -2.40625 C 0.929688 -2.507812 0.78125 -2.644531 0.65625 -2.8125 C 0.53125 -2.988281 0.445312 -3.195312 0.40625 -3.4375 C 0.382812 -3.53125 0.378906 -3.640625 0.390625 -3.765625 C 0.410156 -3.890625 0.441406 -4.019531 0.484375 -4.15625 C 0.535156 -4.300781 0.613281 -4.441406 0.71875 -4.578125 C 0.820312 -4.722656 0.957031 -4.851562 1.125 -4.96875 C 1.289062 -5.082031 1.5 -5.171875 1.75 -5.234375 C 1.925781 -5.285156 2.109375 -5.316406 2.296875 -5.328125 C 2.492188 -5.335938 2.6875 -5.332031 2.875 -5.3125 C 3.070312 -5.300781 3.253906 -5.269531 3.421875 -5.21875 C 3.585938 -5.164062 3.726562 -5.101562 3.84375 -5.03125 C 4.019531 -4.914062 4.144531 -4.785156 4.21875 -4.640625 C 4.300781 -4.503906 4.34375 -4.367188 4.34375 -4.234375 C 4.34375 -4.109375 4.3125 -3.988281 4.25 -3.875 C 4.1875 -3.757812 4.101562 -3.660156 4 -3.578125 C 3.90625 -3.492188 3.796875 -3.4375 3.671875 -3.40625 C 3.597656 -3.5 3.492188 -3.578125 3.359375 -3.640625 C 3.222656 -3.710938 3.078125 -3.765625 2.921875 -3.796875 C 2.773438 -3.835938 2.628906 -3.859375 2.484375 -3.859375 C 2.347656 -3.859375 2.234375 -3.835938 2.140625 -3.796875 C 2.054688 -3.753906 2.015625 -3.6875 2.015625 -3.59375 C 2.015625 -3.539062 2.035156 -3.492188 2.078125 -3.453125 C 2.128906 -3.421875 2.222656 -3.394531 2.359375 -3.375 C 2.734375 -3.320312 3.039062 -3.25 3.28125 -3.15625 C 3.53125 -3.0625 3.703125 -2.984375 3.796875 -2.921875 Z M 3.796875 -2.921875 "/></g></g></g><g fill="#2d323c" fill-opacity="1"><g transform="translate(88.743482, 106.021959)"><g><path d="M 4.671875 -5.1875 C 4.722656 -5.113281 4.765625 -5.007812 4.796875 -4.875 C 4.835938 -4.738281 4.859375 -4.59375 4.859375 -4.4375 C 4.859375 -4.28125 4.828125 -4.128906 4.765625 -3.984375 C 4.703125 -3.835938 4.597656 -3.710938 4.453125 -3.609375 C 4.316406 -3.515625 4.132812 -3.457031 3.90625 -3.4375 C 3.820312 -3.4375 3.75 -3.429688 3.6875 -3.421875 C 3.625 -3.421875 3.585938 -3.421875 3.578125 -3.421875 C 3.578125 -3.222656 3.578125 -3.007812 3.578125 -2.78125 C 3.585938 -2.550781 3.585938 -2.3125 3.578125 -2.0625 C 3.578125 -1.8125 3.570312 -1.570312 3.5625 -1.34375 C 3.550781 -1.113281 3.535156 -0.894531 3.515625 -0.6875 C 3.503906 -0.488281 3.488281 -0.316406 3.46875 -0.171875 C 3.382812 -0.078125 3.273438 -0.0078125 3.140625 0.03125 C 3.003906 0.0703125 2.859375 0.0820312 2.703125 0.0625 C 2.554688 0.0507812 2.410156 0.00390625 2.265625 -0.078125 C 2.128906 -0.171875 2.003906 -0.296875 1.890625 -0.453125 C 1.785156 -0.617188 1.710938 -0.820312 1.671875 -1.0625 C 1.648438 -1.132812 1.632812 -1.25 1.625 -1.40625 C 1.613281 -1.570312 1.601562 -1.765625 1.59375 -1.984375 C 1.59375 -2.203125 1.585938 -2.429688 1.578125 -2.671875 C 1.578125 -2.921875 1.578125 -3.171875 1.578125 -3.421875 C 1.410156 -3.410156 1.234375 -3.40625 1.046875 -3.40625 C 0.867188 -3.40625 0.691406 -3.425781 0.515625 -3.46875 C 0.453125 -3.550781 0.40625 -3.660156 0.375 -3.796875 C 0.34375 -3.929688 0.332031 -4.070312 0.34375 -4.21875 C 0.363281 -4.375 0.40625 -4.519531 0.46875 -4.65625 C 0.53125 -4.800781 0.625 -4.921875 0.75 -5.015625 C 0.882812 -5.109375 1.050781 -5.160156 1.25 -5.171875 C 1.351562 -5.179688 1.492188 -5.1875 1.671875 -5.1875 C 1.859375 -5.1875 2.0625 -5.1875 2.28125 -5.1875 C 2.507812 -5.1875 2.742188 -5.1875 2.984375 -5.1875 C 3.222656 -5.1875 3.453125 -5.1875 3.671875 -5.1875 C 3.890625 -5.1875 4.085938 -5.1875 4.265625 -5.1875 C 4.441406 -5.1875 4.578125 -5.1875 4.671875 -5.1875 Z M 4.671875 -5.1875 "/></g></g></g><g fill="#2d323c" fill-opacity="1"><g transform="translate(96.881408, 106.021959)"><g><path d="M 2.875 -5.296875 C 3.226562 -5.304688 3.535156 -5.269531 3.796875 -5.1875 C 4.066406 -5.101562 4.296875 -4.992188 4.484375 -4.859375 C 4.671875 -4.722656 4.820312 -4.582031 4.9375 -4.4375 C 5.0625 -4.289062 5.160156 -4.148438 5.234375 -4.015625 C 5.304688 -3.878906 5.359375 -3.769531 5.390625 -3.6875 C 5.515625 -3.351562 5.585938 -3.015625 5.609375 -2.671875 C 5.628906 -2.335938 5.585938 -2 5.484375 -1.65625 C 5.203125 -0.75 4.597656 -0.1875 3.671875 0.03125 C 3.296875 0.125 2.925781 0.148438 2.5625 0.109375 C 2.195312 0.078125 1.84375 -0.0234375 1.5 -0.203125 C 1.164062 -0.367188 0.898438 -0.585938 0.703125 -0.859375 C 0.515625 -1.140625 0.378906 -1.457031 0.296875 -1.8125 C 0.242188 -2.03125 0.210938 -2.257812 0.203125 -2.5 C 0.191406 -2.738281 0.203125 -2.96875 0.234375 -3.1875 C 0.273438 -3.40625 0.335938 -3.601562 0.421875 -3.78125 C 0.503906 -3.96875 0.613281 -4.148438 0.75 -4.328125 C 0.882812 -4.503906 1.046875 -4.664062 1.234375 -4.8125 C 1.429688 -4.957031 1.664062 -5.070312 1.9375 -5.15625 C 2.207031 -5.25 2.519531 -5.296875 2.875 -5.296875 Z M 2.90625 -3.4375 C 2.769531 -3.4375 2.644531 -3.398438 2.53125 -3.328125 C 2.425781 -3.265625 2.34375 -3.160156 2.28125 -3.015625 C 2.21875 -2.878906 2.195312 -2.707031 2.21875 -2.5 C 2.226562 -2.289062 2.269531 -2.128906 2.34375 -2.015625 C 2.425781 -1.898438 2.519531 -1.816406 2.625 -1.765625 C 2.726562 -1.710938 2.828125 -1.691406 2.921875 -1.703125 C 3.015625 -1.703125 3.109375 -1.726562 3.203125 -1.78125 C 3.296875 -1.84375 3.375 -1.929688 3.4375 -2.046875 C 3.507812 -2.160156 3.550781 -2.316406 3.5625 -2.515625 C 3.582031 -2.710938 3.5625 -2.878906 3.5 -3.015625 C 3.4375 -3.148438 3.351562 -3.253906 3.25 -3.328125 C 3.144531 -3.398438 3.03125 -3.4375 2.90625 -3.4375 Z M 2.90625 -3.4375 "/></g></g></g><g fill="#2d323c" fill-opacity="1"><g transform="translate(105.730876, 106.021959)"><g><path d="M 4.0625 -1.9375 C 4.125 -1.875 4.195312 -1.785156 4.28125 -1.671875 C 4.363281 -1.554688 4.453125 -1.429688 4.546875 -1.296875 C 4.640625 -1.160156 4.722656 -1.03125 4.796875 -0.90625 C 4.867188 -0.78125 4.914062 -0.675781 4.9375 -0.59375 C 4.90625 -0.414062 4.832031 -0.265625 4.71875 -0.140625 C 4.613281 -0.0234375 4.484375 0.0507812 4.328125 0.09375 C 4.179688 0.144531 4.023438 0.15625 3.859375 0.125 C 3.691406 0.09375 3.523438 0.0234375 3.359375 -0.078125 C 3.191406 -0.191406 3.050781 -0.347656 2.9375 -0.546875 C 2.894531 -0.617188 2.84375 -0.695312 2.78125 -0.78125 C 2.726562 -0.863281 2.664062 -0.957031 2.59375 -1.0625 C 2.53125 -1.175781 2.441406 -1.316406 2.328125 -1.484375 C 2.316406 -1.503906 2.300781 -1.523438 2.28125 -1.546875 C 2.269531 -1.566406 2.257812 -1.585938 2.25 -1.609375 C 2.238281 -1.597656 2.226562 -1.59375 2.21875 -1.59375 C 2.21875 -1.550781 2.210938 -1.5 2.203125 -1.4375 C 2.203125 -1.382812 2.203125 -1.332031 2.203125 -1.28125 C 2.191406 -1.070312 2.175781 -0.859375 2.15625 -0.640625 C 2.144531 -0.429688 2.128906 -0.265625 2.109375 -0.140625 C 2.023438 -0.046875 1.914062 0.0195312 1.78125 0.0625 C 1.644531 0.101562 1.503906 0.113281 1.359375 0.09375 C 1.210938 0.0703125 1.066406 0.0195312 0.921875 -0.0625 C 0.773438 -0.144531 0.648438 -0.265625 0.546875 -0.421875 C 0.441406 -0.578125 0.363281 -0.773438 0.3125 -1.015625 C 0.300781 -1.078125 0.289062 -1.179688 0.28125 -1.328125 C 0.269531 -1.472656 0.257812 -1.648438 0.25 -1.859375 C 0.238281 -2.066406 0.234375 -2.285156 0.234375 -2.515625 C 0.234375 -2.742188 0.234375 -2.976562 0.234375 -3.21875 C 0.234375 -3.457031 0.234375 -3.679688 0.234375 -3.890625 C 0.242188 -4.097656 0.253906 -4.285156 0.265625 -4.453125 C 0.285156 -4.617188 0.3125 -4.75 0.34375 -4.84375 C 0.414062 -4.914062 0.53125 -4.984375 0.6875 -5.046875 C 0.851562 -5.109375 1.039062 -5.160156 1.25 -5.203125 C 1.46875 -5.253906 1.703125 -5.285156 1.953125 -5.296875 C 2.203125 -5.316406 2.453125 -5.316406 2.703125 -5.296875 C 2.953125 -5.273438 3.191406 -5.234375 3.421875 -5.171875 C 3.648438 -5.109375 3.847656 -5.019531 4.015625 -4.90625 C 4.179688 -4.789062 4.328125 -4.644531 4.453125 -4.46875 C 4.585938 -4.300781 4.691406 -4.109375 4.765625 -3.890625 C 4.835938 -3.679688 4.867188 -3.460938 4.859375 -3.234375 C 4.859375 -3.015625 4.800781 -2.796875 4.6875 -2.578125 C 4.570312 -2.367188 4.398438 -2.175781 4.171875 -2 C 4.140625 -1.976562 4.101562 -1.957031 4.0625 -1.9375 Z M 2.984375 -3.265625 C 2.984375 -3.347656 2.953125 -3.421875 2.890625 -3.484375 C 2.828125 -3.546875 2.742188 -3.582031 2.640625 -3.59375 C 2.546875 -3.601562 2.429688 -3.578125 2.296875 -3.515625 C 2.296875 -3.410156 2.296875 -3.328125 2.296875 -3.265625 C 2.296875 -3.203125 2.296875 -3.125 2.296875 -3.03125 C 2.296875 -3.019531 2.300781 -3.003906 2.3125 -2.984375 C 2.332031 -2.972656 2.347656 -2.96875 2.359375 -2.96875 C 2.421875 -2.96875 2.484375 -2.96875 2.546875 -2.96875 C 2.617188 -2.96875 2.6875 -2.976562 2.75 -3 C 2.90625 -3.019531 2.984375 -3.109375 2.984375 -3.265625 Z M 2.984375 -3.265625 "/></g></g></g><g fill="#2d323c" fill-opacity="1"><g transform="translate(113.941513, 106.021959)"><g><path d="M 0.28125 -1.203125 C 0.28125 -1.316406 0.273438 -1.472656 0.265625 -1.671875 C 0.265625 -1.867188 0.265625 -2.09375 0.265625 -2.34375 C 0.265625 -2.59375 0.265625 -2.847656 0.265625 -3.109375 C 0.273438 -3.378906 0.285156 -3.640625 0.296875 -3.890625 C 0.304688 -4.148438 0.316406 -4.390625 0.328125 -4.609375 C 0.335938 -4.828125 0.351562 -5.007812 0.375 -5.15625 C 0.539062 -5.175781 0.75 -5.1875 1 -5.1875 C 1.25 -5.195312 1.515625 -5.203125 1.796875 -5.203125 C 2.078125 -5.210938 2.359375 -5.210938 2.640625 -5.203125 C 2.929688 -5.203125 3.203125 -5.195312 3.453125 -5.1875 C 3.710938 -5.175781 3.9375 -5.164062 4.125 -5.15625 C 4.15625 -5.101562 4.179688 -5.03125 4.203125 -4.9375 C 4.222656 -4.84375 4.234375 -4.738281 4.234375 -4.625 C 4.242188 -4.507812 4.234375 -4.390625 4.203125 -4.265625 C 4.171875 -4.140625 4.113281 -4.023438 4.03125 -3.921875 C 3.957031 -3.828125 3.851562 -3.75 3.71875 -3.6875 C 3.582031 -3.625 3.410156 -3.59375 3.203125 -3.59375 C 3.128906 -3.59375 3.0625 -3.59375 3 -3.59375 C 2.945312 -3.59375 2.882812 -3.59375 2.8125 -3.59375 C 2.738281 -3.59375 2.644531 -3.59375 2.53125 -3.59375 C 2.425781 -3.59375 2.289062 -3.59375 2.125 -3.59375 C 2.125 -3.550781 2.125 -3.503906 2.125 -3.453125 C 2.125 -3.410156 2.125 -3.363281 2.125 -3.3125 C 2.195312 -3.3125 2.300781 -3.3125 2.4375 -3.3125 C 2.570312 -3.320312 2.71875 -3.328125 2.875 -3.328125 C 3.03125 -3.328125 3.179688 -3.316406 3.328125 -3.296875 C 3.484375 -3.285156 3.617188 -3.265625 3.734375 -3.234375 C 3.835938 -3.003906 3.878906 -2.789062 3.859375 -2.59375 C 3.835938 -2.394531 3.757812 -2.234375 3.625 -2.109375 C 3.488281 -1.984375 3.289062 -1.914062 3.03125 -1.90625 C 2.945312 -1.894531 2.863281 -1.890625 2.78125 -1.890625 C 2.707031 -1.890625 2.617188 -1.890625 2.515625 -1.890625 C 2.421875 -1.898438 2.289062 -1.90625 2.125 -1.90625 C 2.125 -1.84375 2.125 -1.785156 2.125 -1.734375 C 2.125 -1.691406 2.125 -1.640625 2.125 -1.578125 C 2.144531 -1.578125 2.164062 -1.578125 2.1875 -1.578125 C 2.207031 -1.578125 2.226562 -1.578125 2.25 -1.578125 C 2.53125 -1.578125 2.804688 -1.578125 3.078125 -1.578125 C 3.359375 -1.578125 3.640625 -1.578125 3.921875 -1.578125 C 4.015625 -1.441406 4.078125 -1.289062 4.109375 -1.125 C 4.140625 -0.957031 4.128906 -0.789062 4.078125 -0.625 C 4.023438 -0.46875 3.925781 -0.332031 3.78125 -0.21875 C 3.632812 -0.101562 3.4375 -0.03125 3.1875 0 C 3.101562 0.0078125 2.988281 0.0195312 2.84375 0.03125 C 2.695312 0.0390625 2.535156 0.046875 2.359375 0.046875 C 2.179688 0.046875 2.003906 0.0390625 1.828125 0.03125 C 1.648438 0.03125 1.488281 0.0234375 1.34375 0.015625 C 1.207031 0.00390625 1.101562 -0.00390625 1.03125 -0.015625 C 0.789062 -0.078125 0.609375 -0.203125 0.484375 -0.390625 C 0.367188 -0.578125 0.300781 -0.847656 0.28125 -1.203125 Z M 0.28125 -1.203125 "/></g></g></g></svg>